<svg xmlns="http://www.w3.org/2000/svg" version="1.1" xmlns:xlink="http://www.w3.org/1999/xlink" xmlns:svgjs="http://svgjs.dev/svgjs" width="1000" height="1000"><style>
    #light-icon {
      display: inline;
    }
    #dark-icon {
      display: none;
    }

    @media (prefers-color-scheme: dark) {
      #light-icon {
        display: none;
      }
      #dark-icon {
        display: inline;
      }
    }
  </style><g id="light-icon"><svg xmlns="http://www.w3.org/2000/svg" version="1.1" xmlns:xlink="http://www.w3.org/1999/xlink" xmlns:svgjs="http://svgjs.dev/svgjs" width="1000" height="1000"><g clip-path="url(#SvgjsClipPath1024)"><rect width="1000" height="1000" fill="#ffffff"></rect><g transform="matrix(1.5625,0,0,1.5625,100,100)"><svg xmlns="http://www.w3.org/2000/svg" version="1.1" xmlns:xlink="http://www.w3.org/1999/xlink" xmlns:svgjs="http://svgjs.dev/svgjs" width="512" height="512"><svg xmlns="http://www.w3.org/2000/svg" version="1.1" xmlns:xlink="http://www.w3.org/1999/xlink" width="512" height="512" x="0" y="0" viewBox="0 0 24 24" style="enable-background:new 0 0 512 512" xml:space="preserve"><g><g fill="#fbc02d"><path d="M21.71 6.51a.74.74 0 0 0-.6-.51l-2-.29-.91-1.84a.78.78 0 0 0-1.34 0l-.91 1.84-2 .29a.75.75 0 0 0-.6.51.74.74 0 0 0 .19.77L15 8.71l-.34 2a.76.76 0 0 0 .3.74.75.75 0 0 0 .79 0l1.81-.95 1.81.95a.73.73 0 0 0 .35.09.75.75 0 0 0 .74-.88l-.34-2 1.46-1.43a.74.74 0 0 0 .13-.72z" fill="#fbc02d" opacity="1" data-original="#fbc02d"></path><path d="M21.19 12.37a.76.76 0 0 0-.89.29 5.75 5.75 0 1 1-6.21-8.73.75.75 0 0 0-.09-1.47 10 10 0 0 0-2-.21 9.75 9.75 0 1 0 9.68 10.91.75.75 0 0 0-.49-.79z" fill="#fbc02d" opacity="1" data-original="#fbc02d"></path></g></g></svg></svg></g></g><defs><clipPath id="SvgjsClipPath1024"><rect width="1000" height="1000" x="0" y="0" rx="350" ry="350"></rect></clipPath></defs></svg></g><g id="dark-icon"><svg xmlns="http://www.w3.org/2000/svg" version="1.1" xmlns:xlink="http://www.w3.org/1999/xlink" xmlns:svgjs="http://svgjs.dev/svgjs" width="1000" height="1000"><g clip-path="url(#SvgjsClipPath1025)"><rect width="1000" height="1000" fill="#ffffff"></rect><g transform="matrix(1.5625,0,0,1.5625,100,100)"><svg xmlns="http://www.w3.org/2000/svg" version="1.1" xmlns:xlink="http://www.w3.org/1999/xlink" xmlns:svgjs="http://svgjs.dev/svgjs" width="512" height="512"><svg xmlns="http://www.w3.org/2000/svg" version="1.1" xmlns:xlink="http://www.w3.org/1999/xlink" width="512" height="512" x="0" y="0" viewBox="0 0 24 24" style="enable-background:new 0 0 512 512" xml:space="preserve"><g><g fill="#fbc02d"><path d="M21.71 6.51a.74.74 0 0 0-.6-.51l-2-.29-.91-1.84a.78.78 0 0 0-1.34 0l-.91 1.84-2 .29a.75.75 0 0 0-.6.51.74.74 0 0 0 .19.77L15 8.71l-.34 2a.76.76 0 0 0 .3.74.75.75 0 0 0 .79 0l1.81-.95 1.81.95a.73.73 0 0 0 .35.09.75.75 0 0 0 .74-.88l-.34-2 1.46-1.43a.74.74 0 0 0 .13-.72z" fill="#fbc02d" opacity="1" data-original="#fbc02d"></path><path d="M21.19 12.37a.76.76 0 0 0-.89.29 5.75 5.75 0 1 1-6.21-8.73.75.75 0 0 0-.09-1.47 10 10 0 0 0-2-.21 9.75 9.75 0 1 0 9.68 10.91.75.75 0 0 0-.49-.79z" fill="#fbc02d" opacity="1" data-original="#fbc02d"></path></g></g></svg></svg></g></g><defs><clipPath id="SvgjsClipPath1025"><rect width="1000" height="1000" x="0" y="0" rx="350" ry="350"></rect></clipPath></defs></svg></g></svg>